<svg width="200" height="24" viewBox="0 0 200 24" fill="none" xmlns="http://www.w3.org/2000/svg">
<path fill-rule="evenodd" clip-rule="evenodd" d="M17.3807 23.6816H14.3293V11.2898L9.83767 23.4367H7.51861L3.05139 11.1429V23.6816H0V6.31837H4.24753L8.78799 18.6857L13.3529 6.31837H17.3807V23.6816ZM36.4702 23.6816H33.1747L32.0518 20.351H25.1678L24.0449 23.6816H20.8715L26.9498 6.31837H30.3918L36.4702 23.6816ZM31.0753 17.5102L28.6098 10.1878L26.1443 17.5102H31.0753ZM43.1588 23.6816H39.9609V6.31837H43.1588V23.6816ZM61.2718 18.5143C61.2718 20.1306 60.686 21.2816 59.8316 22.1388C58.5134 23.4612 56.4872 24 54.3635 24C52.5326 24 50.6042 23.5102 49.1883 22.2122C48.1631 21.2816 47.3819 19.8122 47.3819 18.1714H50.6042C50.6042 19.0286 50.9948 19.7878 51.5074 20.302C52.2397 21.0367 53.4114 21.2327 54.4123 21.2327C55.6084 21.2327 56.7558 20.9878 57.4149 20.302C57.8054 19.8857 58.0984 19.4694 58.0984 18.6367C58.0984 17.3633 57.1219 16.7755 56.0478 16.5796C54.8761 16.3592 53.3626 16.3102 52.2153 16.1143C49.823 15.7224 47.8213 14.1551 47.8213 11.2653C47.8213 9.89388 48.4316 8.74286 49.3348 7.83673C50.4821 6.7102 52.3862 6 54.4123 6C56.2675 6 58.074 6.58776 59.2457 7.6898C60.271 8.66939 60.9789 9.94286 61.0033 11.3878H57.781C57.7566 10.7755 57.4393 10.1143 57.0243 9.67347C56.4628 9.08571 55.3155 8.74286 54.3879 8.74286C53.4114 8.74286 52.2885 8.96327 51.5806 9.69796C51.2145 10.0898 50.9948 10.5306 50.9948 11.1673C50.9948 12.2939 51.7271 12.8816 52.7523 13.0531C53.8508 13.2245 55.3887 13.3469 56.5117 13.4939C59.0992 13.8612 61.2718 15.551 61.2718 18.5143ZM78.921 15.0122C78.921 17.8531 78.6037 20.1551 76.724 22.0408C75.4058 23.3633 73.5994 24 71.7442 24C69.8889 24 68.0825 23.3633 66.7643 22.0408C64.8847 20.1551 64.5673 17.8531 64.5673 15.0122C64.5673 12.1714 64.8847 9.8449 66.7643 7.95918C68.0825 6.63673 69.8889 6 71.7442 6C73.5994 6 75.4058 6.63673 76.724 7.95918C78.6037 9.8449 78.921 12.1714 78.921 15.0122ZM75.7232 15.0122C75.7232 13.4204 75.6744 11.2653 74.4782 10.0163C73.7947 9.28163 72.745 8.86531 71.7442 8.86531C70.7433 8.86531 69.6936 9.28163 69.0101 10.0163C67.814 11.2653 67.7652 13.4204 67.7652 15.0122C67.7652 16.6041 67.814 18.7347 69.0101 19.9837C69.6936 20.7184 70.7433 21.1347 71.7442 21.1347C72.745 21.1347 73.7947 20.7184 74.4782 19.9837C75.6744 18.7347 75.7232 16.6041 75.7232 15.0122ZM97.2782 23.6816H94.0315L86.5373 11.7551V23.6816H83.4371V6.31837H86.7814L94.178 18.0735V6.31837H97.2782V23.6816ZM121.982 18.1469C121.836 19.5184 121.323 20.9143 120.322 21.9429C119.028 23.2653 117.222 24 115.367 24C113.512 24 111.778 23.3878 110.46 22.0653C108.58 20.1796 108.312 17.8531 108.312 15.0122C108.312 12.1714 108.58 9.8449 110.46 7.95918C111.778 6.63673 113.512 6 115.367 6C117.222 6 119.028 6.68571 120.322 8.00816C121.323 9.03673 121.836 10.4082 121.982 11.7796H118.76C118.687 11.0204 118.418 10.4816 117.979 9.94286C117.417 9.23265 116.441 8.86531 115.367 8.86531C114.366 8.86531 113.389 9.28163 112.706 10.0163C111.51 11.2653 111.51 13.4204 111.51 15.0122C111.51 16.6041 111.51 18.7592 112.706 20.0082C113.389 20.7429 114.366 21.1592 115.367 21.1592C116.441 21.1592 117.417 20.7673 117.979 20.0571C118.418 19.5184 118.687 18.9061 118.76 18.1469H121.982ZM138.484 23.6816H126.156V6.31837H138.484V9.18367H129.305V13.2245H137.386V16.0653H129.305V20.8163H138.484V23.6816ZM135.14 2.22857L130.258 4.97143L129.281 3.37959L133.773 0L135.14 2.22857ZM156.573 14.9878C156.573 17.3878 156.329 19.9837 154.547 21.8204C153.399 23.0204 151.666 23.6816 149.689 23.6816H142.951V6.31837H149.689C151.666 6.31837 153.399 6.97959 154.547 8.17959C156.329 10.0163 156.573 12.5878 156.573 14.9878ZM153.375 14.9878C153.375 13.3959 153.35 11.3633 152.13 10.1388C151.544 9.55102 150.69 9.15918 149.689 9.15918H146.1V20.8408H149.689C150.69 20.8408 151.544 20.449 152.13 19.8612C153.35 18.6367 153.375 16.5796 153.375 14.9878ZM174.417 23.6816H171L168.119 17.1184H164.287V23.6816H161.113V6.31837H168.412C172.538 6.31837 174.417 8.91429 174.417 11.7061C174.417 14.0327 173.148 15.8694 171.244 16.5796L174.417 23.6816ZM171.268 11.7061C171.268 10.3102 170.194 9.08571 168.412 9.08571H164.262V14.2776H168.461C170.243 14.2776 171.268 13.3469 171.268 11.7061ZM181.863 23.6816H178.665V6.31837H181.863V23.6816ZM200 18.1469C199.854 19.5184 199.341 20.9143 198.34 21.9429C197.046 23.2653 195.24 24 193.385 24C191.529 24 189.796 23.3878 188.478 22.0653C186.598 20.1796 186.33 17.8531 186.33 15.0122C186.33 12.1714 186.598 9.8449 188.478 7.95918C189.796 6.63673 191.529 6 193.385 6C195.24 6 197.046 6.68571 198.34 8.00816C199.341 9.03673 199.854 10.4082 200 11.7796H196.778C196.704 11.0204 196.436 10.4816 195.997 9.94286C195.435 9.23265 194.459 8.86531 193.385 8.86531C192.384 8.86531 191.407 9.28163 190.724 10.0163C189.528 11.2653 189.528 13.4204 189.528 15.0122C189.528 16.6041 189.528 18.7592 190.724 20.0082C191.407 20.7429 192.384 21.1592 193.385 21.1592C194.459 21.1592 195.435 20.7673 195.997 20.0571C196.436 19.5184 196.704 18.9061 196.778 18.1469H200Z" fill="black"/>
</svg>
