<svg width="24" height="24" viewBox="0 0 24 24" fill="none" xmlns="http://www.w3.org/2000/svg">
<path fill-rule="evenodd" clip-rule="evenodd" d="M7.01667 10.4917L8.85 8.65833C9.08333 8.425 9.15 8.1 9.05833 7.80833C8.75 6.875 8.58333 5.875 8.58333 4.83333C8.58333 4.37309 8.21024 4 7.75 4H4.83333C4.61232 4 4.40036 4.08779 4.24408 4.24407C4.0878 4.40035 4 4.61232 4 4.83333C4 12.6574 10.3426 19 18.1667 19C18.6269 19 19 18.6269 19 18.1667V15.25C19 14.7898 18.6269 14.4167 18.1667 14.4167C17.125 14.4167 16.125 14.25 15.1917 13.9417C14.9 13.85 14.575 13.9167 14.3417 14.15L12.5083 15.9833C10.15 14.7833 8.21667 12.85 7.01667 10.4917ZM12.3315 14.746L13.6346 13.4429C14.1281 12.9493 14.8396 12.7828 15.5054 12.9921C16.3532 13.2722 17.248 13.4167 18.1667 13.4167C19.1792 13.4167 20 14.2375 20 15.25V18.1667C20 19.1792 19.1792 20 18.1667 20C9.79035 20 3 13.2097 3 4.83333C3 4.3471 3.19315 3.88079 3.53697 3.53697C3.88079 3.19315 4.3471 3 4.83333 3H7.75C8.76252 3 9.58333 3.82081 9.58333 4.83333C9.58333 5.75201 9.72778 6.64684 10.0123 7.50851C10.2172 8.16037 10.0507 8.87187 9.55711 9.36544L8.25404 10.6685C9.24513 12.3464 10.6536 13.7549 12.3315 14.746Z" fill="#17181A"/>
</svg>
