<svg width="26" height="20" viewBox="0 0 26 20" fill="none" xmlns="http://www.w3.org/2000/svg">
<rect x="1" y="2" width="24" height="16" rx="1" fill="#3737D6"/>
<path fill-rule="evenodd" clip-rule="evenodd" d="M24.168 19.2481L0.167953 3.2481L1.83205 0.751953L25.8321 16.752L24.168 19.2481Z" fill="white"/>
<path fill-rule="evenodd" clip-rule="evenodd" d="M24.7227 18.416L0.722656 2.41603L1.27736 1.58398L25.2774 17.584L24.7227 18.416Z" fill="#E61919"/>
<path fill-rule="evenodd" clip-rule="evenodd" d="M1.83205 19.2481L25.832 3.2481L24.1679 0.751953L0.167946 16.752L1.83205 19.2481Z" fill="white"/>
<path fill-rule="evenodd" clip-rule="evenodd" d="M1.27734 18.416L25.2773 2.41603L24.7226 1.58398L0.722645 17.584L1.27734 18.416Z" fill="#E61919"/>
<path fill-rule="evenodd" clip-rule="evenodd" d="M15 2H11V8H1V12H11V18H15V12H25V8H15V2Z" fill="white"/>
<path fill-rule="evenodd" clip-rule="evenodd" d="M14 2H12V9H1V11H12V18H14V11H25V9H14V2Z" fill="#E61919"/>
</svg>
