<svg version="1" xmlns="http://www.w3.org/2000/svg" width="346.667" height="346.667" viewBox="0 0 260.000000 260.000000"><path d="M115.6 17.1c-27 3.7-48.6 14.7-67.7 34.5-15.5 16.2-25.5 35.6-30 58.4-1.9 9.5-1.6 32.8.5 42.5 5 23 13.8 39.5 29.9 56.2 17 17.6 37.3 28.6 61.7 33.4 9.5 1.9 32.8 1.6 42.5-.5 23-5 39.5-13.8 56.2-29.9 17.6-17 28.6-37.3 33.4-61.7 1.9-9.5 1.6-32.8-.5-42.5-5-23-13.8-39.5-29.9-56.2-16.6-17.2-35.7-27.8-59.2-32.8-9-1.9-28.1-2.7-36.9-1.4zm35.7 60.2c11.8 5.8 19.3 15.4 22.3 28.6.7 3 1.2 5.7 1 5.9-.5.4-17.5 3.2-19.8 3.2-1.2 0-1.8-.8-1.8-2.3 0-1.3-1.4-5.2-3.1-8.5-4-8-8.9-11.2-17.3-11.2-7.1 0-12 2.4-17.4 8.5-6.3 7.1-7.7 12.5-7.6 28.5 0 14.9 1.6 21.5 6.9 28.4 5.5 7.2 17.7 10.6 25.9 7.2 6.1-2.5 12.6-13.5 12.6-21.2 0-1.2.4-2.5.8-2.8.8-.5 20.8 3.7 21.7 4.6 1 .9-2.8 13.5-5.7 19-4.1 7.8-13.1 16-20.5 18.9-7.9 3-20.7 3.7-29.3 1.5-15.6-4-26.2-14.4-31.8-31.4-2.3-6.9-2.6-9.3-2.6-23.7-.1-10.9.3-17.6 1.3-21 4.7-16.7 16.6-29.6 31.9-34.6 4.3-1.5 8-1.8 15.3-1.6 8.8.2 10.3.6 17.2 4z"/></svg>